<svg width="395.99999999999994" height="105.12856064139993" viewBox="0 0 369.8947368421052 98.19823553797961" class="looka-1j8o68f"><defs id="SvgjsDefs2319"></defs><g id="SvgjsG2320" featurekey="Ez5wPW-0" transform="matrix(1.920882062182661,0,0,1.920882062182661,-3.8903020378018223,2.156184152240623)" fill="#5e63b6"><g xmlns="http://www.w3.org/2000/svg"><path d="M9.5014648,36.0010681h4.4747925v-3.4432373c-1.3220825-0.0392456-2.6564331-0.1564941-4.0334473-0.3508911   C9.7055054,33.3628845,9.5531616,34.6352844,9.5014648,36.0010681z"></path><path d="M10.4515991,30.2649231c1.2027588,0.1641846,2.369873,0.2654419,3.5246582,0.3023071v-5.3428345   C12.6130371,25.8241882,11.3036499,27.6197205,10.4515991,30.2649231z"></path><path d="M15.9762573,25.2243958v5.3459473c1.1557007-0.0366821,2.3226929-0.140564,3.5245361-0.3046265   C18.6488647,27.6200867,17.3395996,25.8242493,15.9762573,25.2243958z"></path><path d="M9.934082,41.7477112c1.3761597-0.1826782,2.7133179-0.2869263,4.0421753-0.3128052v-3.4338379H9.5014648   C9.5524902,39.3486023,9.7021484,40.6042175,9.934082,41.7477112z"></path><path d="M7.5029297,38.0010681h-5.477478c0.1392822,1.8133545,0.6452637,3.5235596,1.4544067,5.0536499l0.0466919-0.012146   c1.5631104-0.4077148,3.0324097-0.7381592,4.4440308-0.9921265C7.7151489,40.7835388,7.5546875,39.4259949,7.5029297,38.0010681z"></path><path d="M15.9762573,36.0010681h4.4743042c-0.0516968-1.3650513-0.2039185-2.6368408-0.440979-3.7922974   c-1.3761597,0.1942749-2.7099609,0.3106079-4.0333252,0.3496704V36.0010681z"></path><path d="M21.9569702,42.1776428c1.3153687,0.255249,2.6807251,0.5705566,4.1320801,0.9562378l0.3009644,0.0800171   c0.8577271-1.5697021,1.3899536-3.3374023,1.5339966-5.2128296h-5.4749146   C22.3956299,39.4733582,22.227417,40.8750916,21.9569702,42.1776428z"></path><path d="M7.9829712,31.8877258c-1.4147949-0.2646484-2.8890991-0.6038208-4.4608154-1.0214233l-0.0046387-0.0012207   c-0.833313,1.5506592-1.3511963,3.2908936-1.4922485,5.1359863h5.4776611   C7.555542,34.5523376,7.7200317,33.1726379,7.9829712,31.8877258z"></path><path d="M15.9762573,43.441864v5.3363647c1.355896-0.5966187,2.6588745-2.3751831,3.5111694-4.9972534   C18.2869873,43.60672,17.1240845,43.4907532,15.9762573,43.441864z"></path><path d="M11.6138306,24.4550476c-2.7976685,0.7503052-5.2203369,2.4066772-6.9388428,4.6414185   c1.3325195,0.3417358,2.5947266,0.6289063,3.7993774,0.8526611C9.2025757,27.5762634,10.291748,25.6672668,11.6138306,24.4550476z"></path><path d="M4.6221313,44.830658c1.7199097,2.2680664,4.1605225,3.9511108,6.9841309,4.7102051   c-1.3300781-1.2229614-2.4243164-3.151001-3.1511841-5.5475464C7.2382202,44.2102966,5.9660034,44.4919128,4.6221313,44.830658z"></path><path d="M25.218811,44.9757385c-1.3205566-0.3439941-2.5675049-0.6322021-3.7605591-0.8622437   c-0.7266235,2.3396606-1.8043823,4.2241821-3.1112061,5.4263916C21.1091309,48.7964172,23.5061646,47.1704407,25.218811,44.9757385   z"></path><path d="M15.9762573,41.4510803c1.3169556,0.0522461,2.6478271,0.1817627,4.0251465,0.3876343   c0.2421265-1.1672974,0.3968506-2.4551392,0.4491577-3.8376465h-4.4743042V41.4510803z"></path><path d="M18.3394775,24.4560242c1.3214111,1.2120972,2.4099121,3.1205444,3.1379395,5.4923096   c1.2061157-0.2240601,2.4649048-0.5081787,3.7982178-0.8502808C23.5578613,26.8634949,21.1361084,25.2069397,18.3394775,24.4560242   z"></path><path d="M13.9762573,48.7782288v-5.3530884c-1.1629028,0.0244141-2.3341675,0.1136475-3.5383301,0.2672119   C11.2895508,46.36203,12.6054077,48.1750793,13.9762573,48.7782288z"></path><path d="M26.4327393,30.8667908l-0.3480835,0.0908203c-1.4433594,0.3765259-2.803772,0.6833496-4.1158447,0.9287109   c0.2631226,1.2852783,0.4276733,2.6654663,0.4802856,4.1147461h5.4750977   C27.7831421,34.1566467,27.2655029,32.4170837,26.4327393,30.8667908z"></path><path d="M46.9762573,11.9989319v-0.4978638c0-5.2382813-4.2617188-9.5-9.5-9.5c-1.0490112,0-2.0556641,0.1776733-3,0.493103   c-0.9443359-0.3154297-1.9509888-0.493103-3-0.493103c-5.2382813,0-9.5,4.2617188-9.5,9.5v0.4978638h2v-0.4978638   c0-4.1357422,3.3642578-7.5,7.5-7.5c0.0602417,0,0.1185303,0.0076294,0.1784668,0.0090332   c-2.2336426,1.7398071-3.6784668,4.4469604-3.6784668,7.4909668v0.4978638h-4v10.0021362h-2V11.9989319h-8.0015259v10.0508423   c0.3320923-0.0220337,0.6624756-0.0506592,1.000061-0.0506592c8.2709961,0,15,6.7290039,15,15   c0,5.5577393-3.0455322,10.4083252-7.5484009,12.9998169h27.5483398v-38H46.9762573z M40.9762573,22.0010681h-2V11.9989319h-9   v-0.4978638c0-3.0689087,1.8544312-5.7096558,4.5-6.8695068c2.6455688,1.1598511,4.5,3.8005981,4.5,6.8695068v0.4978638h2   v-0.4978638c0-3.0440063-1.4448242-5.7511597-3.6784668-7.4909668c0.0599365-0.0014038,0.1182251-0.0090332,0.1784668-0.0090332   c4.1357422,0,7.5,3.3642578,7.5,7.5v0.4978638h-4V22.0010681z"></path></g></g><g id="SvgjsG2321" featurekey="ujU5uU-0" transform="matrix(3.2639056244316675,0,0,3.2639056244316675,108.0955549667211,8.392949808841166)" fill="#5e63b6"><path d="M16.08 6.800000000000001 c0.12 0 0.2 0.1 0.16 0.22 l-3.44 12.86 c-0.02 0.08 -0.1 0.12 -0.18 0.12 l-2.2 0 c-0.08 0 -0.14 -0.04 -0.18 -0.12 l-1.36 -5.06 l-1.84 5.08 c-0.02 0.06 -0.06 0.1 -0.14 0.1 l-2.12 0 c-0.08 0 -0.14 -0.04 -0.16 -0.12 l-3.42 -12.88 c-0.02 -0.1 0.04 -0.2 0.18 -0.2 l2.3 0 c0.06 0 0.12 0.06 0.14 0.12 l2.22 8.48 l1.66 -5.02 l-0.92 -3.36 c-0.04 -0.12 0.06 -0.22 0.16 -0.22 l2.48 0 c0.08 0 0.12 0.02 0.16 0.12 l1.84 8.16 l2.2 -8.16 c0.02 -0.06 0.08 -0.12 0.16 -0.12 l2.3 0 z M9.04 10.58 l-3.02 8.04 l-3.24 -10.66 c-0.04 -0.14 -0.28 -0.08 -0.24 0.06 l3.24 10.68 c0.06 0.28 0.4 0.26 0.5 0 l2.86 -7.72 l2.1 7.7 c0.08 0.3 0.44 0.3 0.5 0.02 l3.18 -10.68 c0.06 -0.14 -0.2 -0.22 -0.24 -0.06 l-3.16 10.66 l-2.92 -10.66 c-0.02 -0.14 -0.28 -0.1 -0.22 0.06 z M25.22 12 l0 -5.02 c0 -0.1 0.08 -0.18 0.18 -0.18 l2.28 0 c0.1 0 0.18 0.08 0.18 0.18 l0 12.84 c0 0.1 -0.08 0.18 -0.18 0.18 l-2.28 0 c-0.1 0 -0.18 -0.08 -0.18 -0.18 l0 -5.32 l-3.24 0 l0 5.32 c0 0.1 -0.08 0.18 -0.18 0.18 l-2.28 0 c-0.1 0 -0.16 -0.08 -0.16 -0.18 l0 -12.84 c0 -0.1 0.06 -0.18 0.16 -0.18 l2.28 0 c0.1 0 0.18 0.08 0.18 0.18 l0 5.02 l3.24 0 z M20.52 18.76 c0 0.16 0.26 0.14 0.26 0 l0 -5.36 l5.62 0 l0 5.36 c0 0.14 0.22 0.16 0.22 0 l0 -10.76 c0 -0.14 -0.22 -0.18 -0.22 0 l0 5.12 l-5.62 0 l0 -5.12 c0 -0.14 -0.26 -0.14 -0.26 0 l0 10.76 z M31.759999999999998 20 c-0.1 0 -0.16 -0.08 -0.16 -0.18 l0 -12.84 c0 -0.1 0.06 -0.18 0.16 -0.18 l2.28 0 c0.1 0 0.18 0.08 0.18 0.18 l0 12.84 c0 0.1 -0.08 0.18 -0.18 0.18 l-2.28 0 z M32.8 8 l0 10.78 c0 0.18 0.22 0.18 0.22 0 l0 -10.78 c0 -0.14 -0.22 -0.14 -0.22 0 z M42.03999999999999 15.2 c-0.1 0 -0.18 -0.08 -0.18 -0.18 l0 -2.14 c0 -0.1 0.08 -0.18 0.18 -0.18 l4.58 0 c0.1 0 0.18 0.08 0.18 0.18 l0 3.14 c0 2.94 -1.58 4.18 -4.56 4.18 c-2.78 0 -4.6 -1.1 -4.6 -4.18 l0 -5.26 c0 -2.9 1.62 -4.14 4.6 -4.14 c2.8 0 4.56 1.08 4.56 4.14 l0 0.42 c0 0.1 -0.08 0.18 -0.18 0.18 l-2.3 0 c-0.1 0 -0.18 -0.08 -0.18 -0.18 l0 -0.26 c0 -1.22 -0.78 -1.62 -1.8 -1.62 l-0.24 0 c-0.66 0 -1.1 0.18 -1.4 0.58 c-0.28 0.38 -0.38 0.88 -0.38 1.54 l0 3.96 c0 1.74 0.94 2.12 1.78 2.12 l0.24 0 c1.22 0 1.8 -0.84 1.8 -2.12 l0 -0.18 l-2.1 0 z M38.86 15.879999999999999 c0 2.22 1.08 3.04 3.36 3.04 c2.4 0 3.38 -1 3.38 -3.46 l0 -1.5 c0 -0.06 -0.04 -0.14 -0.08 -0.14 l-2.78 0 c-0.18 0 -0.14 0.26 0 0.26 l2.62 0 l0 1.38 c0 2.14 -0.82 3.24 -3.14 3.24 c-1.92 0 -3.12 -0.68 -3.12 -2.82 l0 -4.82 c0 -2.06 0.94 -2.98 3.12 -2.98 c1.62 0 3.1 0.9 2.98 2.28 c0 0.16 0.22 0.2 0.26 0.02 c0 -1.76 -1.6 -2.52 -3.24 -2.52 c-2 0 -3.36 0.72 -3.36 3.2 l0 4.82 z M54.699999999999996 11.9 c1.52 0.72 3.5 1.86 3.5 3.92 c0 0.6 -0.1 1.76 -0.76 2.74 c-0.74 1.1 -1.9 1.64 -3.5 1.64 c-1.7 0 -3.68 -0.82 -4.3 -2.68 c-0.02 -0.06 0 -0.12 0.06 -0.16 l1.84 -1.58 c0.08 -0.06 0.2 -0.06 0.26 0.04 c0.04 0.1 0.12 0.26 0.22 0.46 c0.3 0.62 1.02 1.24 1.82 1.24 c0.62 0 1.46 -0.34 1.46 -1.3 c0 -0.92 -1.26 -1.44 -2.04 -1.74 c-0.9 -0.36 -1.82 -0.82 -2.6 -1.5 c-0.82 -0.76 -1.22 -1.6 -1.22 -2.6 c0 -2.5 2.3 -3.76 4.48 -3.76 c1.72 0 3 0.9 3.84 2.68 c0.04 0.08 0 0.18 -0.06 0.22 l-1.78 1.24 c-0.08 0.04 -0.12 0.04 -0.2 -0.06 c-0.68 -0.98 -1.28 -1.44 -2.08 -1.44 c-0.42 0 -1.4 0.16 -1.4 0.9 c0 0.9 1.66 1.36 2.46 1.74 z M51.059999999999995 17.42 c0.5 1 1.88 1.58 3 1.58 c1.46 0 2.64 -1 2.8 -2.52 c0.2 -1.86 -1.26 -2.66 -2.7 -3.38 l-0.64 -0.28 c-1.48 -0.66 -2.56 -1.16 -2.56 -2.54 c0 -1.52 1.4 -2.22 2.78 -2.22 c1.26 0 1.92 0.74 2.26 1.2 c0.12 0.16 0.32 0.02 0.2 -0.14 c-0.34 -0.42 -1.06 -1.3 -2.46 -1.3 c-1.58 0 -3.02 0.78 -3.02 2.46 c0 1.5 1.2 2.08 2.72 2.78 l0.62 0.3 c1.98 0.94 2.7 1.82 2.54 3.1 c-0.3 2.04 -1.86 2.3 -2.54 2.3 c-1.5 0 -2.5 -0.9 -2.8 -1.46 c-0.1 -0.1 -0.24 0 -0.2 0.12 z M68.74 10.22 c0 0.78 -0.12 1.46 -0.4 1.96 c0.76 0.72 1.08 1.88 1.08 3.5 c0 1.72 -0.36 2.94 -1.18 3.58 c-0.78 0.62 -1.88 0.74 -2.98 0.74 l-3.9 0 c-0.1 0 -0.16 -0.08 -0.16 -0.18 l0 -12.84 c0 -0.1 0.06 -0.18 0.16 -0.18 l3.2 0 c1.08 0 2.2 0.08 2.96 0.58 c0.94 0.6 1.22 1.68 1.22 2.84 z M63.83999999999999 9.42 l0 1.8 l1.22 0 c0.64 0 0.98 -0.2 0.98 -0.9 s-0.52 -0.9 -1.4 -0.9 l-0.8 0 z M64.6 17.38 c1.1 0 2.14 -0.48 2.14 -1.76 c0 -0.96 -0.68 -1.72 -1.7 -1.72 l-1.2 0 l0 3.48 l0.76 0 z M62.35999999999999 8.06 l0 10.66 c0 0.1 0.08 0.14 0.16 0.14 l2.68 0 c1.94 0 3.1 -0.98 3.1 -3.08 c0 -1.5 -0.34 -3.06 -1.9 -3.5 c0.92 -0.3 1.16 -1.22 1.16 -2.2 c0 -1.6 -0.9 -2.18 -2.52 -2.18 l-2.52 0 c-0.12 0 -0.16 0.06 -0.16 0.16 z M64.89999999999999 18.62 l-2.28 0 l0 -6.16 l2.82 0 c2.06 0 2.58 1.34 2.58 3.32 c0 2.02 -1.1 2.92 -3.12 2.84 z M67.32 10.08 c0 1.62 -0.68 2.12 -2.32 2.12 l-2.38 0 l0 -4.04 l2.42 0 c1.18 0 2.28 0.22 2.28 1.92 z M74.19999999999999 6.9 l1.74 3.36 l1.7 -3.36 c0.06 -0.1 0.08 -0.1 0.16 -0.1 l2.24 0 c0.12 0 0.2 0.12 0.16 0.22 l-2.9 6.74 l0 6.06 c0 0.1 -0.08 0.18 -0.18 0.18 l-2.36 0 c-0.06 0 -0.14 -0.08 -0.14 -0.18 l0 -6.06 l-2.98 -6.7 c-0.04 -0.14 0.02 -0.26 0.16 -0.26 l2.24 0 c0.08 0 0.1 0 0.16 0.1 z M76.03999999999999 13.3 l2.5 -5.2 c0.06 -0.12 -0.14 -0.22 -0.22 -0.08 l-2.38 4.98 l-2.44 -4.98 c-0.08 -0.14 -0.3 -0.04 -0.24 0.1 l2.56 5.18 l0 5.52 c0 0.14 0.22 0.16 0.22 0 l0 -5.52 z"></path></g></svg>